<svg version="1.1" id="Layer_1" xmlns="http://www.w3.org/2000/svg" xmlns:xlink="http://www.w3.org/1999/xlink" x="0px" y="0px"
	 width="100%" viewBox="0 0 512 512" enable-background="new 0 0 512 512" xml:space="preserve">
<path fill="#892FB0" opacity="1.000000" stroke="none" 
	d="
M346.000000,0.999996 
	C359.354218,1.000000 372.708466,1.000000 386.438721,1.332319 
	C385.271698,3.809856 383.985535,6.212749 382.139099,8.053697 
	C375.691559,14.481984 368.914734,20.581852 362.512177,27.052994 
	C350.613129,39.079487 338.915894,51.305363 327.086395,63.401047 
	C310.151642,80.716858 293.223816,98.039955 276.198120,115.266129 
	C262.552521,129.072433 248.681274,142.656631 235.110367,156.535156 
	C232.288452,159.421036 230.346985,163.167801 227.544540,166.611206 
	C223.188293,166.704559 219.287277,166.704559 214.623947,166.704559 
	C216.034805,169.935730 217.122330,172.426376 217.913544,175.099121 
	C215.472733,177.101318 213.175964,178.771362 211.209961,180.767258 
	C202.374023,189.737595 193.661148,198.829056 184.835449,207.809570 
	C182.674179,210.008759 180.254639,211.954117 177.691284,213.788467 
	C172.963028,204.373657 168.497314,195.186554 164.364639,185.906158 
	C168.108368,182.732010 171.679520,179.809525 174.902618,176.543549 
	C190.771057,160.463867 206.484573,144.231171 222.368439,128.166855 
	C259.422729,90.691574 296.583649,53.321621 333.584564,15.793803 
	C338.089905,11.224277 341.878967,5.948474 346.000000,0.999996 
z"/>
<path fill="#7A39B1" opacity="1.000000" stroke="none" 
	d="
M0.999993,469.000000 
	C1.000000,454.979095 1.000000,440.958221 1.329836,426.377625 
	C5.485061,422.657074 9.637873,419.814880 13.078441,416.279541 
	C26.987276,401.987488 40.501095,387.309082 54.488907,373.096283 
	C74.669731,352.590881 95.168098,332.398346 115.466316,312.007935 
	C125.413879,302.015167 135.215759,291.877411 145.348404,282.037628 
	C150.358719,291.847137 155.104202,301.424286 159.513702,311.053223 
	C158.232544,311.736298 157.151794,312.231781 156.362915,313.019562 
	C147.319580,322.050201 138.336426,331.141113 129.306335,340.185059 
	C113.205467,356.310699 97.021980,372.354340 80.991371,388.549438 
	C69.988037,399.665680 59.171322,410.966980 48.297638,422.211121 
	C42.192059,428.524719 36.184113,434.933136 30.050663,441.219299 
	C24.835924,446.563812 19.585499,451.878876 14.198833,457.048553 
	C9.918405,461.156555 5.408195,465.025116 0.999993,469.000000 
z"/>
<path fill="#8134B0" opacity="1.000000" stroke="none" 
	d="
M227.999771,166.517838 
	C230.346985,163.167801 232.288452,159.421036 235.110367,156.535156 
	C248.681274,142.656631 262.552521,129.072433 276.198120,115.266129 
	C293.223816,98.039955 310.151642,80.716858 327.086395,63.401047 
	C338.915894,51.305363 350.613129,39.079487 362.512177,27.052994 
	C368.914734,20.581852 375.691559,14.481984 382.139099,8.053697 
	C383.985535,6.212749 385.271698,3.809856 386.907379,1.332319 
	C399.354218,1.000000 411.708466,1.000000 424.440033,1.329449 
	C423.953369,2.862764 423.226318,4.199757 422.204742,5.250408 
	C408.318787,19.531626 394.443756,33.824116 380.459076,48.008411 
	C369.233826,59.393883 357.814056,70.587395 346.572632,81.957062 
	C336.770081,91.871437 327.131805,101.948059 317.356232,111.889328 
	C304.879639,124.577293 292.210602,137.078903 279.886749,149.912643 
	C274.900970,155.104721 270.607635,160.961731 265.539001,166.609955 
	C252.719101,166.641800 240.359436,166.579819 227.999771,166.517838 
z"/>
<path fill="#902AAF" opacity="1.000000" stroke="none" 
	d="
M345.531342,0.999996 
	C341.878967,5.948474 338.089905,11.224277 333.584564,15.793803 
	C296.583649,53.321621 259.422729,90.691574 222.368439,128.166855 
	C206.484573,144.231171 190.771057,160.463867 174.902618,176.543549 
	C171.679520,179.809525 168.108368,182.732010 164.133148,185.640167 
	C159.904922,178.030914 156.241241,170.594360 152.933975,163.057373 
	C154.157486,162.476700 155.192200,162.164459 155.866882,161.491348 
	C168.676392,148.712082 181.543549,135.988144 194.193970,123.052490 
	C209.993256,106.897003 225.509537,90.464371 241.340332,74.340218 
	C249.698563,65.827087 258.599792,57.848827 267.014679,49.389175 
	C278.501404,37.841366 289.852295,26.154116 301.062683,14.338096 
	C305.009705,10.177855 308.371185,5.462111 312.000000,1.000004 
	C323.020905,1.000000 334.041779,1.000000 345.531342,0.999996 
z"/>
<path fill="#6D40B1" opacity="1.000000" stroke="none" 
	d="
M20.000002,513.000000 
	C13.742913,513.000000 7.485826,513.000000 1.000000,513.000000 
	C1.000000,507.315155 1.000000,501.627289 1.342831,495.389740 
	C3.487369,493.694550 5.552655,492.818359 7.045523,491.357269 
	C13.796081,484.750397 20.408552,478.001495 27.026707,471.260437 
	C39.446178,458.610443 51.843609,445.938721 64.234642,433.260834 
	C77.593231,419.592957 90.906822,405.881012 104.288948,392.236237 
	C123.966415,372.172577 143.662109,352.126526 163.442459,332.164581 
	C164.865112,330.728882 167.040741,330.039246 169.085770,329.281525 
	C172.592804,336.250793 175.880341,342.941254 178.933533,349.896912 
	C177.348190,351.393707 175.935287,352.564453 174.655487,353.866058 
	C156.968399,371.854797 139.369568,389.930847 121.607559,407.845215 
	C101.861038,427.761047 81.910019,447.474152 62.163311,467.389862 
	C49.644375,480.015991 37.282833,492.799957 24.985811,505.642487 
	C22.965809,507.752136 21.644321,510.530640 20.000002,513.000000 
z"/>
<path fill="#892FB0" opacity="1.000000" stroke="none" 
	d="
M0.999999,391.000000 
	C1.000000,376.645782 1.000000,362.291534 1.356827,347.432770 
	C2.887238,346.357147 4.319695,346.046356 5.195200,345.175598 
	C16.610992,333.821472 28.007294,322.446411 39.289619,310.959808 
	C53.385708,296.608521 67.356483,282.134186 81.410622,267.741608 
	C90.563637,258.368134 99.691483,248.967606 108.992561,239.742508 
	C112.244507,236.517151 115.980598,233.779938 119.714607,231.068314 
	C124.413017,240.313568 128.892426,249.310333 133.177567,258.635132 
	C125.888275,266.446716 118.908325,274.043610 111.675102,281.391144 
	C94.864914,298.466949 77.892128,315.382629 61.060642,332.437653 
	C42.717453,351.024445 24.485382,369.720978 6.108744,388.274475 
	C4.811208,389.584503 2.721401,390.109802 0.999999,391.000000 
z"/>
<path fill="#465AB3" opacity="1.000000" stroke="none" 
	d="
M221.000000,513.000000 
	C207.645767,513.000000 194.291550,513.000000 180.560257,512.671143 
	C181.399704,510.784943 182.475479,509.088318 183.855743,507.692871 
	C192.383041,499.071838 201.040009,490.578644 209.537262,481.928406 
	C221.516159,469.733826 233.378418,457.424774 245.318375,445.191833 
	C260.154114,429.992065 274.977417,414.779755 289.885071,399.650665 
	C298.997223,390.403107 308.257874,381.301849 317.685455,372.437439 
	C321.505676,382.953003 325.899109,392.091736 339.511963,388.977631 
	C339.660156,388.943756 339.836304,389.032074 339.905334,389.387756 
	C338.584930,391.263855 337.490875,392.945801 336.111053,394.346191 
	C326.446869,404.154480 316.645538,413.828461 307.036163,423.689667 
	C288.353271,442.862122 269.811096,462.171631 251.122391,481.338348 
	C242.421463,490.261780 233.479858,498.950226 224.735199,507.831635 
	C223.261002,509.328827 222.233734,511.266052 221.000000,513.000000 
z"/>
<path fill="#6049B2" opacity="1.000000" stroke="none" 
	d="
M513.000000,53.000000 
	C513.000000,61.020901 513.000000,69.041801 512.670959,77.622437 
	C510.902435,79.280441 509.306000,80.223877 508.046967,81.500168 
	C488.804535,101.006790 469.612976,120.563553 450.395752,140.095016 
	C428.939484,161.902100 407.485596,183.711563 385.998840,205.488571 
	C373.606476,218.048355 361.116547,230.512222 348.775452,243.121902 
	C347.485291,244.440155 346.907440,246.455566 345.543304,248.266113 
	C330.056488,248.306503 315.025452,248.228302 300.080200,247.809998 
	C306.982452,240.274734 313.839539,233.117371 320.586365,225.857452 
	C322.242157,224.075714 323.537628,221.959061 325.459229,219.901611 
	C337.466461,219.806839 349.013275,219.806839 361.196594,219.806839 
	C359.209473,215.558807 357.674683,212.277832 356.487640,208.956055 
	C357.926758,208.228333 359.196777,207.718765 360.082092,206.827194 
	C369.544678,197.297974 378.910492,187.672623 388.372437,178.142761 
	C406.982239,159.399399 425.730042,140.792068 444.246460,121.957161 
	C464.259827,101.599632 484.041809,81.014793 504.012848,60.615364 
	C506.747864,57.821674 509.991730,55.526165 513.000000,53.000000 
z"/>
<path fill="#2E6AB4" opacity="1.000000" stroke="none" 
	d="
M513.000000,316.000000 
	C513.000000,324.354218 513.000000,332.708466 512.670593,341.622498 
	C504.642426,349.210999 496.697327,355.991333 489.301331,363.325317 
	C477.624207,374.904602 466.304413,386.844635 454.854462,398.652405 
	C445.253265,408.553650 435.766632,418.567444 426.077148,428.381256 
	C413.101898,441.523010 399.978455,454.518433 386.921509,467.579529 
	C379.996399,474.506866 373.055817,481.418884 366.161743,488.376984 
	C359.496979,495.103607 352.835175,501.834839 346.293823,508.680328 
	C345.209717,509.814911 344.748901,511.545074 344.000000,513.000000 
	C335.645782,513.000000 327.291534,513.000000 318.504639,512.643188 
	C319.220734,510.518433 320.116852,508.501251 321.567200,507.030701 
	C325.407471,503.136993 329.628296,499.617218 333.447998,495.704895 
	C350.581696,478.155853 367.626648,460.520172 384.707245,442.919281 
	C393.609497,433.745819 402.486481,424.547546 411.436859,415.421295 
	C417.696808,409.038391 424.135651,402.829742 430.339111,396.393433 
	C432.468628,394.183899 434.126862,391.520111 436.429718,388.977356 
	C439.575012,388.890869 442.290955,388.890869 445.381592,388.890869 
	C444.744904,386.818756 444.316589,385.424713 444.205688,383.905884 
	C454.584961,373.447327 464.671295,363.137268 474.700439,352.771881 
	C481.975189,345.253235 488.982300,337.464264 496.472717,330.169586 
	C501.660919,325.116913 507.468933,320.700623 513.000000,316.000000 
z"/>
<path fill="#8134B0" opacity="1.000000" stroke="none" 
	d="
M0.999999,391.468658 
	C2.721401,390.109802 4.811208,389.584503 6.108744,388.274475 
	C24.485382,369.720978 42.717453,351.024445 61.060642,332.437653 
	C77.892128,315.382629 94.864914,298.466949 111.675102,281.391144 
	C118.908325,274.043610 125.888275,266.446716 133.416611,258.908447 
	C137.594467,266.504242 141.339005,274.154755 145.083557,281.805267 
	C135.215759,291.877411 125.413879,302.015167 115.466316,312.007935 
	C95.168098,332.398346 74.669731,352.590881 54.488907,373.096283 
	C40.501095,387.309082 26.987276,401.987488 13.078441,416.279541 
	C9.637873,419.814880 5.485061,422.657074 1.329836,425.908966 
	C1.000000,414.645782 1.000000,403.291534 0.999999,391.468658 
z"/>
<path fill="#3863B4" opacity="1.000000" stroke="none" 
	d="
M291.000000,513.000000 
	C278.979095,513.000000 266.958221,513.000000 254.559784,512.671021 
	C255.399551,510.783417 256.482819,509.093323 257.859039,507.690582 
	C262.159332,503.307343 266.636658,499.097382 270.922821,494.700775 
	C277.427429,488.028534 283.736603,481.164215 290.298431,474.549774 
	C297.886261,466.901093 305.758118,459.533783 313.329315,451.869110 
	C329.571625,435.426208 345.763336,418.932007 361.830414,402.318237 
	C365.837921,398.174377 369.292999,393.496246 373.463623,388.977631 
	C385.950409,388.948547 397.975616,389.005554 409.905640,389.389191 
	C408.293549,391.671875 406.961945,393.812256 405.229553,395.554016 
	C393.924133,406.920715 382.412140,418.083893 371.199615,429.540588 
	C358.568268,442.446930 346.279663,455.688507 333.660248,468.606750 
	C320.785919,481.785980 307.667206,494.726227 294.725342,507.840027 
	C293.252747,509.332214 292.230865,511.269226 291.000000,513.000000 
z"/>
<path fill="#6D40B1" opacity="1.000000" stroke="none" 
	d="
M496.000000,0.999995 
	C501.575531,1.000000 507.151093,1.000000 513.000000,1.000000 
	C513.000000,4.676162 513.000000,8.358906 512.670898,12.611819 
	C511.497589,13.699780 510.505402,14.072015 509.831177,14.757135 
	C499.349335,25.408184 488.886719,36.078381 478.464081,46.787376 
	C465.342010,60.269958 452.303925,73.834595 439.139679,87.275711 
	C433.922333,92.602806 428.353149,97.585297 423.135925,102.912498 
	C409.058624,117.286469 395.097473,131.774109 381.065338,146.192429 
	C368.679382,158.919266 356.259827,171.613464 343.597137,184.074554 
	C340.721680,178.542862 338.104187,173.258682 335.622009,167.585266 
	C336.891876,165.576920 337.835663,163.772705 339.194855,162.371445 
	C344.502869,156.899002 349.997223,151.607574 355.321106,146.150162 
	C365.286011,135.935394 375.129272,125.601715 385.115143,115.407654 
	C404.644409,95.471146 424.191589,75.551674 443.818512,55.711384 
	C458.198975,41.174557 472.795227,26.850620 487.118805,12.258528 
	C490.447601,8.867324 493.058685,4.771575 496.000000,0.999995 
z"/>
<path fill="#743CB1" opacity="1.000000" stroke="none" 
	d="
M168.866272,329.002747 
	C167.040741,330.039246 164.865112,330.728882 163.442459,332.164581 
	C143.662109,352.126526 123.966415,372.172577 104.288948,392.236237 
	C90.906822,405.881012 77.593231,419.592957 64.234642,433.260834 
	C51.843609,445.938721 39.446178,458.610443 27.026707,471.260437 
	C20.408552,478.001495 13.796081,484.750397 7.045523,491.357269 
	C5.552655,492.818359 3.487369,493.694550 1.342831,494.920044 
	C1.000000,486.645782 1.000000,478.291534 0.999993,469.468628 
	C5.408195,465.025116 9.918405,461.156555 14.198833,457.048553 
	C19.585499,451.878876 24.835924,446.563812 30.050663,441.219299 
	C36.184113,434.933136 42.192059,428.524719 48.297638,422.211121 
	C59.171322,410.966980 69.988037,399.665680 80.991371,388.549438 
	C97.021980,372.354340 113.205467,356.310699 129.306335,340.185059 
	C138.336426,331.141113 147.319580,322.050201 156.362915,313.019562 
	C157.151794,312.231781 158.232544,311.736298 159.716522,311.344482 
	C163.125656,317.390198 165.995972,323.196472 168.866272,329.002747 
z"/>
<path fill="#5B4DB2" opacity="1.000000" stroke="none" 
	d="
M345.999115,248.147522 
	C346.907440,246.455566 347.485291,244.440155 348.775452,243.121902 
	C361.116547,230.512222 373.606476,218.048355 385.998840,205.488571 
	C407.485596,183.711563 428.939484,161.902100 450.395752,140.095016 
	C469.612976,120.563553 488.804535,101.006790 508.046967,81.500168 
	C509.306000,80.223877 510.902435,79.280441 512.670959,78.091080 
	C513.000000,87.354225 513.000000,96.708458 512.658813,106.613297 
	C509.682373,109.139229 506.805573,110.866280 504.464325,113.143906 
	C500.183990,117.307991 496.335999,121.913872 492.101685,126.128510 
	C481.774139,136.408081 471.172791,146.416183 460.965912,156.812637 
	C443.864929,174.231155 427.046509,191.926834 409.990234,209.389648 
	C399.077271,220.562653 387.902832,231.480133 376.978210,242.641937 
	C375.575531,244.075043 374.972595,246.290878 373.543396,248.262741 
	C364.058105,248.303436 355.028625,248.225479 345.999115,248.147522 
z"/>
<path fill="#9229AF" opacity="1.000000" stroke="none" 
	d="
M119.495605,230.819824 
	C115.980598,233.779938 112.244507,236.517151 108.992561,239.742508 
	C99.691483,248.967606 90.563637,258.368134 81.410622,267.741608 
	C67.356483,282.134186 53.385708,296.608521 39.289619,310.959808 
	C28.007294,322.446411 16.610992,333.821472 5.195200,345.175598 
	C4.319695,346.046356 2.887238,346.357147 1.356827,346.964111 
	C1.000000,334.312439 1.000000,321.624878 1.356880,308.432922 
	C3.600461,306.661316 5.747270,305.656769 7.333271,304.085938 
	C21.831970,289.726044 36.292686,275.326569 50.641113,260.816620 
	C59.635399,251.721100 68.403366,242.402069 77.305107,233.214539 
	C79.838913,230.599380 82.455849,228.062485 85.086426,225.543762 
	C92.253181,218.681763 99.447556,211.848602 106.831474,205.311890 
	C111.186508,214.019760 115.341049,222.419785 119.495605,230.819824 
z"/>
<path fill="#743CB1" opacity="1.000000" stroke="none" 
	d="
M450.000000,0.999997 
	C458.354218,1.000000 466.708466,1.000000 475.494385,1.358803 
	C475.077240,3.090699 474.441895,4.670646 473.344757,5.803311 
	C466.293274,13.083032 459.101593,20.226799 452.033997,27.491110 
	C446.703094,32.970390 441.614014,38.689095 436.193787,44.076336 
	C427.135101,53.079842 417.708923,61.718712 408.776428,70.842941 
	C391.826324,88.156860 375.201843,105.789314 358.277435,123.128723 
	C345.880890,135.829269 333.173737,148.226440 320.745697,160.896805 
	C319.362915,162.306534 318.901337,164.619843 317.613708,166.608932 
	C308.810608,166.640900 300.406311,166.578049 292.018372,166.169556 
	C292.954346,164.122009 293.543701,162.097672 294.843170,160.766556 
	C314.443970,140.688049 334.097107,120.660027 353.832214,100.713470 
	C360.944794,93.524666 368.456970,86.729332 375.521851,79.495697 
	C387.483002,67.248817 399.131927,54.696835 411.101593,42.458466 
	C422.821960,30.474987 434.824615,18.767809 446.576111,6.814245 
	C448.105957,5.258138 448.877319,2.956379 450.000000,0.999997 
z"/>
<path fill="#7A39B1" opacity="1.000000" stroke="none" 
	d="
M449.531372,0.999997 
	C448.877319,2.956379 448.105957,5.258138 446.576111,6.814245 
	C434.824615,18.767809 422.821960,30.474987 411.101593,42.458466 
	C399.131927,54.696835 387.483002,67.248817 375.521851,79.495697 
	C368.456970,86.729332 360.944794,93.524666 353.832214,100.713470 
	C334.097107,120.660027 314.443970,140.688049 294.843170,160.766556 
	C293.543701,162.097672 292.954346,164.122009 291.558044,166.264191 
	C282.720612,166.641693 274.359924,166.578934 265.999207,166.516159 
	C270.607635,160.961731 274.900970,155.104721 279.886749,149.912643 
	C292.210602,137.078903 304.879639,124.577293 317.356232,111.889328 
	C327.131805,101.948059 336.770081,91.871437 346.572632,81.957062 
	C357.814056,70.587395 369.233826,59.393883 380.459076,48.008411 
	C394.443756,33.824116 408.318787,19.531626 422.204742,5.250408 
	C423.226318,4.199757 423.953369,2.862764 424.908691,1.329449 
	C433.020905,1.000000 441.041809,1.000000 449.531372,0.999997 
z"/>
<path fill="#405EB3" opacity="1.000000" stroke="none" 
	d="
M373.002014,389.063721 
	C369.292999,393.496246 365.837921,398.174377 361.830414,402.318237 
	C345.763336,418.932007 329.571625,435.426208 313.329315,451.869110 
	C305.758118,459.533783 297.886261,466.901093 290.298431,474.549774 
	C283.736603,481.164215 277.427429,488.028534 270.922821,494.700775 
	C266.636658,499.097382 262.159332,503.307343 257.859039,507.690582 
	C256.482819,509.093323 255.399551,510.783417 254.091125,512.671021 
	C243.312439,513.000000 232.624878,513.000000 221.468658,513.000000 
	C222.233734,511.266052 223.261002,509.328827 224.735199,507.831635 
	C233.479858,498.950226 242.421463,490.261780 251.122391,481.338348 
	C269.811096,462.171631 288.353271,442.862122 307.036163,423.689667 
	C316.645538,413.828461 326.446869,404.154480 336.111053,394.346191 
	C337.490875,392.945801 338.584930,391.263855 340.367188,389.301758 
	C351.616119,388.948792 362.309082,389.006256 373.002014,389.063721 
z"/>
<path fill="#9626AF" opacity="1.000000" stroke="none" 
	d="
M311.531342,1.000004 
	C308.371185,5.462111 305.009705,10.177855 301.062683,14.338096 
	C289.852295,26.154116 278.501404,37.841366 267.014679,49.389175 
	C258.599792,57.848827 249.698563,65.827087 241.340332,74.340218 
	C225.509537,90.464371 209.993256,106.897003 194.193970,123.052490 
	C181.543549,135.988144 168.676392,148.712082 155.866882,161.491348 
	C155.192200,162.164459 154.157486,162.476700 152.682434,162.827042 
	C149.264908,156.839523 146.455353,150.981888 143.997803,145.026794 
	C146.169388,143.516617 148.175079,142.287827 149.780380,140.663376 
	C170.467392,119.729446 191.112259,98.753792 211.736862,77.758301 
	C227.691483,61.516808 243.531586,45.162121 259.565582,28.999611 
	C266.689606,21.818520 274.260193,15.081373 281.419525,7.933829 
	C283.339813,6.016675 284.494080,3.332216 286.000000,1.000001 
	C294.354218,1.000000 302.708466,1.000000 311.531342,1.000004 
z"/>
<path fill="#5153B2" opacity="1.000000" stroke="none" 
	d="
M161.000000,513.000000 
	C152.645767,513.000000 144.291534,513.000000 135.559906,512.671021 
	C135.700577,511.497803 136.081375,510.519226 136.756775,509.828857 
	C153.043793,493.182434 169.322754,476.527802 185.693787,459.964172 
	C192.595505,452.981293 199.824997,446.321289 206.693710,439.307098 
	C224.027405,421.606293 241.192749,403.740692 258.518158,386.031708 
	C271.547058,372.714355 284.679993,359.497711 297.891907,346.362274 
	C299.150177,345.111267 301.301971,344.759064 303.320984,344.212128 
	C305.757690,349.235901 307.912354,354.037140 309.885223,359.129028 
	C298.622528,370.917664 287.649353,382.522125 276.424469,393.877808 
	C268.376465,402.019501 259.796539,409.637726 251.798935,417.826447 
	C236.224731,433.772766 220.989868,450.050323 205.429047,466.009888 
	C193.353577,478.394775 180.915207,490.425537 168.821899,502.793365 
	C165.846802,505.835938 163.588074,509.578979 161.000000,513.000000 
z"/>
<path fill="#BE0CAD" opacity="1.000000" stroke="none" 
	d="
M1.000000,112.000000 
	C1.000000,98.312439 1.000000,84.624878 1.334455,70.377831 
	C3.227331,68.884743 5.052317,68.218903 6.301812,66.974991 
	C15.908234,57.411476 25.390066,47.722977 34.936623,38.099117 
	C41.925545,31.053600 49.142010,24.222334 55.900124,16.963274 
	C60.581341,11.935061 64.654915,6.341148 69.000000,1.000000 
	C82.354225,1.000000 95.708458,1.000000 109.492729,1.356477 
	C109.134178,2.927690 108.519569,4.311292 107.529938,5.330899 
	C98.183250,14.960661 88.768867,24.524685 79.381363,34.114861 
	C64.150276,49.674782 48.953251,65.268188 33.685085,80.791634 
	C25.763939,88.845207 17.781555,96.841019 9.699107,104.732101 
	C7.003551,107.363838 3.911044,109.588982 1.000000,112.000000 
z"/>
<path fill="#6744B1" opacity="1.000000" stroke="none" 
	d="
M20.468624,513.000000 
	C21.644321,510.530640 22.965809,507.752136 24.985811,505.642487 
	C37.282833,492.799957 49.644375,480.015991 62.163311,467.389862 
	C81.910019,447.474152 101.861038,427.761047 121.607559,407.845215 
	C139.369568,389.930847 156.968399,371.854797 174.655487,353.866058 
	C175.935287,352.564453 177.348190,351.393707 179.189819,350.158020 
	C182.210953,355.406250 184.741486,360.658539 186.930603,366.010864 
	C184.225723,368.407562 181.816788,370.659546 179.506042,373.008087 
	C160.824066,391.995850 142.201996,411.042725 123.480553,429.991425 
	C101.711311,452.024872 79.800034,473.918243 58.087246,496.006927 
	C52.784119,501.401917 48.014782,507.321594 43.000008,513.000000 
	C35.645748,513.000000 28.291496,513.000000 20.468624,513.000000 
z"/>
<path fill="#286EB4" opacity="1.000000" stroke="none" 
	d="
M344.468628,513.000000 
	C344.748901,511.545074 345.209717,509.814911 346.293823,508.680328 
	C352.835175,501.834839 359.496979,495.103607 366.161743,488.376984 
	C373.055817,481.418884 379.996399,474.506866 386.921509,467.579529 
	C399.978455,454.518433 413.101898,441.523010 426.077148,428.381256 
	C435.766632,418.567444 445.253265,408.553650 454.854462,398.652405 
	C466.304413,386.844635 477.624207,374.904602 489.301331,363.325317 
	C496.697327,355.991333 504.642426,349.210999 512.670593,342.091187 
	C513.000000,349.020966 513.000000,356.041901 512.670776,363.622620 
	C510.668396,365.518127 508.834320,366.696320 507.347626,368.214630 
	C496.230072,379.568359 485.260681,391.067871 474.092102,402.370789 
	C457.144928,419.521851 440.032593,436.509705 423.068451,453.644135 
	C407.617920,469.249756 392.197906,484.887299 376.932434,500.673187 
	C373.279205,504.451019 370.292999,508.873840 367.000000,513.000000 
	C359.645752,513.000000 352.291504,513.000000 344.468628,513.000000 
z"/>
<path fill="#6744B1" opacity="1.000000" stroke="none" 
	d="
M343.855103,184.322067 
	C356.259827,171.613464 368.679382,158.919266 381.065338,146.192429 
	C395.097473,131.774109 409.058624,117.286469 423.135925,102.912498 
	C428.353149,97.585297 433.922333,92.602806 439.139679,87.275711 
	C452.303925,73.834595 465.342010,60.269958 478.464081,46.787376 
	C488.886719,36.078381 499.349335,25.408184 509.831177,14.757135 
	C510.505402,14.072015 511.497589,13.699780 512.670898,13.090995 
	C513.000000,20.020948 513.000000,27.041895 512.671021,34.622551 
	C505.540314,41.696171 498.560272,48.035175 491.969513,54.755909 
	C469.763611,77.399620 447.719940,100.202347 425.560608,122.891891 
	C419.191772,129.413116 412.592468,135.708603 406.184509,142.192261 
	C387.720062,160.874756 369.299347,179.600464 350.603943,198.061707 
	C348.182648,193.316833 346.018860,188.819458 343.855103,184.322067 
z"/>
<path fill="#405EB3" opacity="1.000000" stroke="none" 
	d="
M513.000000,207.000000 
	C513.000000,217.354233 513.000000,227.708450 512.671021,238.622482 
	C510.668854,240.514114 508.834595,241.687836 507.347656,243.202469 
	C494.095795,256.701508 480.977417,270.332062 467.677368,283.783142 
	C452.863678,298.765045 437.844116,313.543701 423.075409,328.569305 
	C421.217651,330.459381 420.339600,333.312378 418.538513,335.714050 
	C408.046875,335.631958 398.024353,335.555115 388.019318,335.135071 
	C388.506653,333.577179 388.659882,332.055298 389.494751,331.194611 
	C399.098358,321.293854 408.784149,311.472382 418.492310,301.673645 
	C425.142609,294.961334 431.941071,288.394592 438.534119,281.627167 
	C450.942261,268.890869 463.220154,256.027740 475.611176,243.274658 
	C482.305725,236.384476 489.029053,229.517014 495.913116,222.817856 
	C501.473785,217.406540 507.294586,212.262558 513.000000,207.000000 
z"/>
<path fill="#2172B5" opacity="1.000000" stroke="none" 
	d="
M513.000000,382.000000 
	C513.000000,391.687561 513.000000,401.375122 512.670654,411.622375 
	C511.030609,413.170959 509.572144,414.014221 508.432007,415.171143 
	C496.079742,427.705261 483.765533,440.276978 471.465179,452.862091 
	C461.394226,463.166229 451.400513,473.546234 441.282135,483.803406 
	C436.986053,488.158386 432.250885,492.092010 428.090973,496.566406 
	C423.181641,501.846863 418.678986,507.505402 414.000000,513.000000 
	C403.979095,513.000000 393.958221,513.000000 383.559814,512.671021 
	C384.513733,510.669159 385.701965,508.854279 387.199036,507.345795 
	C400.527649,493.915070 413.966522,480.593475 427.261749,467.129944 
	C439.703613,454.530579 452.006622,441.794098 464.377411,429.124481 
	C478.508789,414.651794 492.604858,400.144073 506.840790,385.774902 
	C508.486877,384.113403 510.927673,383.239227 513.000000,382.000000 
z"/>
<path fill="#5650B2" opacity="1.000000" stroke="none" 
	d="
M373.999176,248.144104 
	C374.972595,246.290878 375.575531,244.075043 376.978210,242.641937 
	C387.902832,231.480133 399.077271,220.562653 409.990234,209.389648 
	C427.046509,191.926834 443.864929,174.231155 460.965912,156.812637 
	C471.172791,146.416183 481.774139,136.408081 492.101685,126.128510 
	C496.335999,121.913872 500.183990,117.307991 504.464325,113.143906 
	C506.805573,110.866280 509.682373,109.139229 512.658813,107.081955 
	C513.000000,115.354233 513.000000,123.708466 512.643188,132.567307 
	C510.397888,134.341049 508.230865,135.335373 506.664978,136.922684 
	C493.841522,149.921570 481.198547,163.098587 468.365936,176.088348 
	C454.680237,189.941681 440.794586,203.597382 427.100647,217.442657 
	C419.982330,224.639679 413.193359,232.162704 406.066040,239.350510 
	C398.454712,247.026474 390.620056,254.481003 382.627502,261.804901 
	C381.568085,259.966827 380.900269,258.268311 379.931091,256.763916 
	C378.042999,253.833176 375.986145,251.011154 373.999176,248.144104 
z"/>
<path fill="#B80FAE" opacity="1.000000" stroke="none" 
	d="
M1.000000,112.468658 
	C3.911044,109.588982 7.003551,107.363838 9.699107,104.732101 
	C17.781555,96.841019 25.763939,88.845207 33.685085,80.791634 
	C48.953251,65.268188 64.150276,49.674782 79.381363,34.114861 
	C88.768867,24.524685 98.183250,14.960661 107.529938,5.330899 
	C108.519569,4.311292 109.134178,2.927690 109.961388,1.356477 
	C118.687569,1.000000 127.375130,1.000000 136.440216,1.329003 
	C135.835938,2.980742 134.993164,4.439573 133.851547,5.605876 
	C115.715942,24.133749 97.569771,42.651489 79.366364,61.112732 
	C68.645042,71.985909 57.771294,82.708801 47.052052,93.584007 
	C33.508301,107.324829 20.078613,121.178131 6.522532,134.906693 
	C4.931585,136.517883 2.852692,137.647263 1.000001,139.000000 
	C1.000000,130.312439 1.000000,121.624870 1.000000,112.468658 
z"/>
<path fill="#AD17AE" opacity="1.000000" stroke="none" 
	d="
M1.000000,196.000000 
	C1.000000,189.312363 1.000000,182.624710 1.334231,175.377060 
	C4.076935,173.079849 6.773137,171.628937 8.839955,169.551773 
	C15.050236,163.310394 20.914766,156.725891 27.097275,150.455780 
	C38.747925,138.640076 50.581768,127.005074 62.238941,115.195740 
	C78.892960,98.324310 95.408981,81.316620 112.072639,64.454781 
	C127.826195,48.513870 143.782394,32.772392 159.459473,16.757212 
	C164.293686,11.818742 168.504013,6.269552 173.000000,0.999998 
	C178.022095,1.000000 183.044189,1.000000 188.497375,1.356863 
	C187.775711,3.485906 186.881271,5.512209 185.428391,6.989171 
	C175.750275,16.827623 165.887421,26.484390 156.212906,36.326309 
	C146.896393,45.804016 137.823196,55.521343 128.483459,64.975670 
	C115.053925,78.569962 101.356346,91.901154 88.023422,105.588417 
	C82.037086,111.733833 76.656700,118.469513 70.658302,125.023109 
	C69.389847,125.178116 68.464447,125.247360 67.337158,125.331711 
	C67.638405,126.560722 67.896446,127.613464 67.973160,128.975113 
	C64.860550,132.651535 62.071568,136.156845 58.970215,139.359665 
	C50.994205,147.596634 42.857498,155.677704 34.827618,163.862869 
	C28.314009,170.502411 22.020361,177.366638 15.327821,183.818649 
	C10.823633,188.160980 5.794364,191.958664 1.000000,196.000000 
z"/>
<path fill="#A11FAF" opacity="1.000000" stroke="none" 
	d="
M235.000000,0.999997 
	C243.687561,1.000000 252.375122,1.000000 261.439941,1.328978 
	C255.615540,8.286626 249.522018,15.020690 243.187363,21.519728 
	C233.232010,31.733444 223.036453,41.713097 213.085236,51.930786 
	C201.266403,64.066116 189.626617,76.375626 177.851196,88.553551 
	C173.251190,93.310799 168.576340,98.002373 163.789871,102.571213 
	C154.455551,111.481140 145.018570,120.283493 135.374741,128.878571 
	C134.339676,125.683113 132.345032,124.978676 129.472626,125.093002 
	C125.323204,125.258156 121.157265,125.008415 117.035629,124.582901 
	C118.234451,122.467430 119.148346,120.462036 120.598541,118.982224 
	C128.821945,110.590973 137.216782,102.368050 145.470978,94.006599 
	C156.302078,83.034775 167.028641,71.959770 177.857666,60.985882 
	C182.399643,56.383141 187.159409,51.995174 191.696030,47.387360 
	C200.052475,38.899788 208.437851,30.434999 216.581238,21.745241 
	C222.902222,15.000154 228.873352,7.927211 235.000000,0.999997 
z"/>
<path fill="#9B23AF" opacity="1.000000" stroke="none" 
	d="
M135.624100,129.130402 
	C145.018570,120.283493 154.455551,111.481140 163.789871,102.571213 
	C168.576340,98.002373 173.251190,93.310799 177.851196,88.553551 
	C189.626617,76.375626 201.266403,64.066116 213.085236,51.930786 
	C223.036453,41.713097 233.232010,31.733444 243.187363,21.519728 
	C249.522018,15.020690 255.615540,8.286626 261.908600,1.328978 
	C269.687592,1.000000 277.375153,1.000000 285.531372,1.000001 
	C284.494080,3.332216 283.339813,6.016675 281.419525,7.933829 
	C274.260193,15.081373 266.689606,21.818520 259.565582,28.999611 
	C243.531586,45.162121 227.691483,61.516808 211.736862,77.758301 
	C191.112259,98.753792 170.467392,119.729446 149.780380,140.663376 
	C148.175079,142.287827 146.169388,143.516617 143.738312,144.805145 
	C140.625931,139.497467 138.125015,134.313934 135.624100,129.130402 
z"/>
<path fill="#713EB1" opacity="1.000000" stroke="none" 
	d="
M318.012512,166.514114 
	C318.901337,164.619843 319.362915,162.306534 320.745697,160.896805 
	C333.173737,148.226440 345.880890,135.829269 358.277435,123.128723 
	C375.201843,105.789314 391.826324,88.156860 408.776428,70.842941 
	C417.708923,61.718712 427.135101,53.079842 436.193787,44.076336 
	C441.614014,38.689095 446.703094,32.970390 452.033997,27.491110 
	C459.101593,20.226799 466.293274,13.083032 473.344757,5.803311 
	C474.441895,4.670646 475.077240,3.090699 475.963074,1.358803 
	C482.354401,1.000000 488.708801,1.000000 495.531616,0.999995 
	C493.058685,4.771575 490.447601,8.867324 487.118805,12.258528 
	C472.795227,26.850620 458.198975,41.174557 443.818512,55.711384 
	C424.191589,75.551674 404.644409,95.471146 385.115143,115.407654 
	C375.129272,125.601715 365.286011,135.935394 355.321106,146.150162 
	C349.997223,151.607574 344.502869,156.899002 339.194855,162.371445 
	C337.835663,163.772705 336.891876,165.576920 335.304016,167.278854 
	C329.238037,167.079163 323.625275,166.796646 318.012512,166.514114 
z"/>
<path fill="#5153B2" opacity="1.000000" stroke="none" 
	d="
M382.882935,262.032227 
	C390.620056,254.481003 398.454712,247.026474 406.066040,239.350510 
	C413.193359,232.162704 419.982330,224.639679 427.100647,217.442657 
	C440.794586,203.597382 454.680237,189.941681 468.365936,176.088348 
	C481.198547,163.098587 493.841522,149.921570 506.664978,136.922684 
	C508.230865,135.335373 510.397888,134.341049 512.643188,133.035950 
	C513.000000,141.020905 513.000000,149.041809 512.671021,157.622467 
	C511.019104,159.164108 509.550476,159.999634 508.395325,161.149963 
	C492.829346,176.651077 477.301727,192.190750 461.785736,207.741974 
	C460.732513,208.797623 459.915039,210.086777 458.875122,211.157745 
	C446.355377,224.051071 433.829865,236.938889 421.271759,249.794830 
	C415.709076,255.489380 410.210236,261.258240 404.417664,266.712189 
	C400.169739,270.711823 395.490570,274.253448 390.724792,277.790619 
	C387.924988,272.398773 385.403961,267.215515 382.882935,262.032227 
z"/>
<path fill="#3267B4" opacity="1.000000" stroke="none" 
	d="
M291.468628,513.000000 
	C292.230865,511.269226 293.252747,509.332214 294.725342,507.840027 
	C307.667206,494.726227 320.785919,481.785980 333.660248,468.606750 
	C346.279663,455.688507 358.568268,442.446930 371.199615,429.540588 
	C382.412140,418.083893 393.924133,406.920715 405.229553,395.554016 
	C406.961945,393.812256 408.293549,391.671875 410.367279,389.302612 
	C419.282837,388.947540 427.641632,389.005676 436.000397,389.063843 
	C434.126862,391.520111 432.468628,394.183899 430.339111,396.393433 
	C424.135651,402.829742 417.696808,409.038391 411.436859,415.421295 
	C402.486481,424.547546 393.609497,433.745819 384.707245,442.919281 
	C367.626648,460.520172 350.581696,478.155853 333.447998,495.704895 
	C329.628296,499.617218 325.407471,503.136993 321.567200,507.030701 
	C320.116852,508.501251 319.220734,510.518433 318.035950,512.643188 
	C309.312439,513.000000 300.624878,513.000000 291.468628,513.000000 
z"/>
<path fill="#A51CAE" opacity="1.000000" stroke="none" 
	d="
M234.531342,0.999997 
	C228.873352,7.927211 222.902222,15.000154 216.581238,21.745241 
	C208.437851,30.434999 200.052475,38.899788 191.696030,47.387360 
	C187.159409,51.995174 182.399643,56.383141 177.857666,60.985882 
	C167.028641,71.959770 156.302078,83.034775 145.470978,94.006599 
	C137.216782,102.368050 128.821945,110.590973 120.598541,118.982224 
	C119.148346,120.462036 118.234451,122.467430 116.573990,124.668686 
	C107.716972,125.050377 99.358849,124.993477 91.095001,124.611496 
	C100.453232,114.306503 109.569450,104.184029 119.023170,94.387230 
	C128.254166,84.821251 137.901581,75.658524 147.231155,66.185768 
	C154.560837,58.743607 161.589783,51.005146 168.922531,43.566086 
	C179.778900,32.552345 190.870941,21.770067 201.671097,10.702324 
	C204.479248,7.824576 206.576324,4.252930 209.000000,1.000000 
	C217.354233,1.000000 225.708466,1.000000 234.531342,0.999997 
z"/>
<path fill="#465AB3" opacity="1.000000" stroke="none" 
	d="
M513.000000,206.531433 
	C507.294586,212.262558 501.473785,217.406540 495.913116,222.817856 
	C489.029053,229.517014 482.305725,236.384476 475.611176,243.274658 
	C463.220154,256.027740 450.942261,268.890869 438.534119,281.627167 
	C431.941071,288.394592 425.142609,294.961334 418.492310,301.673645 
	C408.784149,311.472382 399.098358,321.293854 389.494751,331.194611 
	C388.659882,332.055298 388.506653,333.577179 387.558105,335.223755 
	C379.391998,335.570770 371.704559,335.485931 364.060303,335.074799 
	C365.377533,332.691406 366.351837,330.350525 367.981049,328.629730 
	C373.180969,323.137512 378.730438,317.975372 383.905396,312.461029 
	C385.365662,310.904938 386.004425,308.577911 387.473083,306.487000 
	C393.198669,306.369507 398.471130,306.369507 404.272766,306.369507 
	C402.898315,302.950195 401.812012,300.247681 400.915039,297.227203 
	C402.541016,295.301422 403.912720,293.629578 405.424622,292.095947 
	C416.714355,280.644073 428.079163,269.265900 439.330658,257.776672 
	C461.844727,234.786987 484.274200,211.714325 506.838898,188.774582 
	C508.477844,187.108414 510.927368,186.239563 513.000000,185.000000 
	C513.000000,192.020950 513.000000,199.041901 513.000000,206.531433 
z"/>
<path fill="#4C57B3" opacity="1.000000" stroke="none" 
	d="
M513.000000,184.531357 
	C510.927368,186.239563 508.477844,187.108414 506.838898,188.774582 
	C484.274200,211.714325 461.844727,234.786987 439.330658,257.776672 
	C428.079163,269.265900 416.714355,280.644073 405.424622,292.095947 
	C403.912720,293.629578 402.541016,295.301422 400.669006,296.965424 
	C397.156952,290.680786 394.080292,284.339996 391.003601,277.999176 
	C395.490570,274.253448 400.169739,270.711823 404.417664,266.712189 
	C410.210236,261.258240 415.709076,255.489380 421.271759,249.794830 
	C433.829865,236.938889 446.355377,224.051071 458.875122,211.157745 
	C459.915039,210.086777 460.732513,208.797623 461.785736,207.741974 
	C477.301727,192.190750 492.829346,176.651077 508.395325,161.149963 
	C509.550476,159.999634 511.019104,159.164108 512.671021,158.091110 
	C513.000000,166.687561 513.000000,175.375137 513.000000,184.531357 
z"/>
<path fill="#B313AE" opacity="1.000000" stroke="none" 
	d="
M1.000001,139.468277 
	C2.852692,137.647263 4.931585,136.517883 6.522532,134.906693 
	C20.078613,121.178131 33.508301,107.324829 47.052052,93.584007 
	C57.771294,82.708801 68.645042,71.985909 79.366364,61.112732 
	C97.569771,42.651489 115.715942,24.133749 133.851547,5.605876 
	C134.993164,4.439573 135.835938,2.980742 136.908875,1.329003 
	C143.354401,1.000000 149.708786,1.000000 156.440491,1.329012 
	C156.515106,2.247822 156.333405,2.954833 155.892090,3.410336 
	C143.757324,15.935635 131.648621,28.486933 119.422249,40.922485 
	C110.111267,50.392780 100.572525,59.639267 91.269402,69.117126 
	C82.421562,78.131142 73.863937,87.431404 64.962219,96.390701 
	C57.370438,104.031609 49.332008,111.228729 41.739925,118.869339 
	C29.889666,130.795380 18.293682,142.973923 6.462863,154.919601 
	C5.047812,156.348404 2.840234,156.992294 1.000001,158.000000 
	C1.000000,151.978851 1.000000,145.957703 1.000001,139.468277 
z"/>
<path fill="#4C57B3" opacity="1.000000" stroke="none" 
	d="
M161.468292,513.000000 
	C163.588074,509.578979 165.846802,505.835938 168.821899,502.793365 
	C180.915207,490.425537 193.353577,478.394775 205.429047,466.009888 
	C220.989868,450.050323 236.224731,433.772766 251.798935,417.826447 
	C259.796539,409.637726 268.376465,402.019501 276.424469,393.877808 
	C287.649353,382.522125 298.622528,370.917664 310.200745,359.279968 
	C312.949341,363.471802 315.200592,367.803375 317.451843,372.134888 
	C308.257874,381.301849 298.997223,390.403107 289.885071,399.650665 
	C274.977417,414.779755 260.154114,429.992065 245.318375,445.191833 
	C233.378418,457.424774 221.516159,469.733826 209.537262,481.928406 
	C201.040009,490.578644 192.383041,499.071838 183.855743,507.692871 
	C182.475479,509.088318 181.399704,510.784943 180.091599,512.671143 
	C173.978851,513.000000 167.957703,513.000000 161.468292,513.000000 
z"/>
<path fill="#6446B1" opacity="1.000000" stroke="none" 
	d="
M350.861450,198.309189 
	C369.299347,179.600464 387.720062,160.874756 406.184509,142.192261 
	C412.592468,135.708603 419.191772,129.413116 425.560608,122.891891 
	C447.719940,100.202347 469.763611,77.399620 491.969513,54.755909 
	C498.560272,48.035175 505.540314,41.696171 512.671021,35.091125 
	C513.000000,40.688042 513.000000,46.376080 513.000000,52.532059 
	C509.991730,55.526165 506.747864,57.821674 504.012848,60.615364 
	C484.041809,81.014793 464.259827,101.599632 444.246460,121.957161 
	C425.730042,140.792068 406.982239,159.399399 388.372437,178.142761 
	C378.910492,187.672623 369.544678,197.297974 360.082092,206.827194 
	C359.196777,207.718765 357.926758,208.228333 356.256805,208.686127 
	C354.072662,205.074387 352.467041,201.691788 350.861450,198.309189 
z"/>
<path fill="#5D4BB2" opacity="1.000000" stroke="none" 
	d="
M97.000000,513.000000 
	C90.978844,513.000000 84.957695,513.000000 78.559418,512.671021 
	C79.396820,510.786194 80.469978,509.090485 81.848846,507.697296 
	C90.707588,498.746429 99.696541,489.923950 108.521004,480.939758 
	C119.454269,469.808563 130.211868,458.504761 141.147537,447.375977 
	C164.451065,423.660950 187.851852,400.041443 211.107773,376.279999 
	C213.135117,374.208588 214.387344,371.378601 216.456772,368.789978 
	C223.275833,368.752106 229.637711,368.825226 235.921280,369.246429 
	C230.726273,375.396393 225.850815,381.434052 220.450928,386.959137 
	C197.675262,410.262787 174.789169,433.459167 151.853271,456.605377 
	C134.755753,473.859650 117.502815,490.959808 100.378082,508.187225 
	C99.016312,509.557129 98.115189,511.384979 97.000000,513.000000 
z"/>
<path fill="#B015AE" opacity="1.000000" stroke="none" 
	d="
M1.000001,158.467606 
	C2.840234,156.992294 5.047812,156.348404 6.462863,154.919601 
	C18.293682,142.973923 29.889666,130.795380 41.739925,118.869339 
	C49.332008,111.228729 57.370438,104.031609 64.962219,96.390701 
	C73.863937,87.431404 82.421562,78.131142 91.269402,69.117126 
	C100.572525,59.639267 110.111267,50.392780 119.422249,40.922485 
	C131.648621,28.486933 143.757324,15.935635 155.892090,3.410336 
	C156.333405,2.954833 156.515106,2.247822 156.908905,1.329012 
	C162.022095,1.000000 167.044189,1.000000 172.533142,0.999998 
	C168.504013,6.269552 164.293686,11.818742 159.459473,16.757212 
	C143.782394,32.772392 127.826195,48.513870 112.072639,64.454781 
	C95.408981,81.316620 78.892960,98.324310 62.238941,115.195740 
	C50.581768,127.005074 38.747925,138.640076 27.097275,150.455780 
	C20.914766,156.725891 15.050236,163.310394 8.839955,169.551773 
	C6.773137,171.628937 4.076935,173.079849 1.334231,174.908524 
	C1.000000,169.645065 1.000000,164.290146 1.000001,158.467606 
z"/>
<path fill="#9B23AF" opacity="1.000000" stroke="none" 
	d="
M1.000001,287.000000 
	C1.000000,277.979095 1.000000,268.958221 1.329086,259.377747 
	C2.622475,258.188904 3.733031,257.705841 4.529448,256.908844 
	C19.768595,241.658386 35.009510,226.409286 50.168083,211.078857 
	C61.713074,199.402969 73.155533,187.625504 84.612183,175.862610 
	C86.227318,174.204300 87.663521,172.371704 89.471268,170.847260 
	C92.845222,177.368347 95.930458,183.661972 98.789558,190.203705 
	C87.818871,201.212845 77.048553,211.948288 66.337578,222.742615 
	C57.121078,232.030853 47.937622,241.352493 38.804157,250.722336 
	C31.055313,258.671722 23.564215,266.879974 15.637579,274.645538 
	C11.089257,279.101410 5.900462,282.903564 1.000001,287.000000 
z"/>
<path fill="#A11FAF" opacity="1.000000" stroke="none" 
	d="
M89.182549,170.619781 
	C87.663521,172.371704 86.227318,174.204300 84.612183,175.862610 
	C73.155533,187.625504 61.713074,199.402969 50.168083,211.078857 
	C35.009510,226.409286 19.768595,241.658386 4.529448,256.908844 
	C3.733031,257.705841 2.622475,258.188904 1.329086,258.909058 
	C1.000000,248.645767 1.000000,238.291550 1.329017,227.377563 
	C7.677012,221.140182 13.906115,215.667267 19.675127,209.746063 
	C36.227135,192.757401 52.517597,175.513641 69.101753,158.556854 
	C72.053162,155.539124 75.919991,153.416702 79.605278,151.118164 
	C82.958473,157.776886 86.070511,164.198334 89.182549,170.619781 
z"/>
<path fill="#6049B2" opacity="1.000000" stroke="none" 
	d="
M215.999603,368.900970 
	C214.387344,371.378601 213.135117,374.208588 211.107773,376.279999 
	C187.851852,400.041443 164.451065,423.660950 141.147537,447.375977 
	C130.211868,458.504761 119.454269,469.808563 108.521004,480.939758 
	C99.696541,489.923950 90.707588,498.746429 81.848846,507.697296 
	C80.469978,509.090485 79.396820,510.786194 78.091156,512.671021 
	C72.311958,513.000000 66.623917,513.000000 60.503929,512.643188 
	C61.224129,510.515045 62.114548,508.486084 63.567162,507.010529 
	C91.325249,478.814880 119.122444,450.657562 146.971329,422.551544 
	C161.000687,408.392670 175.230621,394.431610 189.183167,380.198120 
	C192.506561,376.807770 195.082245,372.684448 198.458405,368.787598 
	C204.609833,368.751617 210.304733,368.826294 215.999603,368.900970 
z"/>
<path fill="#5650B2" opacity="1.000000" stroke="none" 
	d="
M303.038971,343.989594 
	C301.301971,344.759064 299.150177,345.111267 297.891907,346.362274 
	C284.679993,359.497711 271.547058,372.714355 258.518158,386.031708 
	C241.192749,403.740692 224.027405,421.606293 206.693710,439.307098 
	C199.824997,446.321289 192.595505,452.981293 185.693787,459.964172 
	C169.322754,476.527802 153.043793,493.182434 136.756775,509.828857 
	C136.081375,510.519226 135.700577,511.497803 135.091263,512.671021 
	C131.638718,513.000000 128.277420,513.000000 124.494385,512.640747 
	C126.916573,508.705780 129.490112,504.868439 132.651718,501.599884 
	C145.697678,488.112488 158.917068,474.792755 172.081833,461.420349 
	C193.756927,439.403290 215.385468,417.340057 237.134827,395.396637 
	C255.234619,377.135345 273.515991,359.054169 291.645508,340.822174 
	C300.775909,331.640137 309.826996,322.375244 318.717560,312.962311 
	C320.305725,311.280823 320.932220,308.691010 322.463470,306.435822 
	C328.278656,306.432556 333.633148,306.514099 338.940979,306.913269 
	C337.771454,308.811798 336.832306,310.572083 335.493988,311.942657 
	C329.513428,318.067413 323.358978,324.022980 317.409454,330.177063 
	C315.987671,331.647736 315.112030,333.646454 313.534424,335.519196 
	C308.817780,335.636078 304.552002,335.636078 299.633392,335.636078 
	C300.966248,338.905426 302.002625,341.447510 303.038971,343.989594 
z"/>
<path fill="#5B4DB2" opacity="1.000000" stroke="none" 
	d="
M97.468262,513.000000 
	C98.115189,511.384979 99.016312,509.557129 100.378082,508.187225 
	C117.502815,490.959808 134.755753,473.859650 151.853271,456.605377 
	C174.789169,433.459167 197.675262,410.262787 220.450928,386.959137 
	C225.850815,381.434052 230.726273,375.396393 236.377502,369.134705 
	C242.274002,368.746307 247.635986,368.817749 252.964355,369.252991 
	C251.917755,371.279907 251.176666,373.208862 249.850220,374.565460 
	C234.513031,390.251068 219.079620,405.842529 203.686737,421.473755 
	C175.458969,450.138397 147.223511,478.795563 119.071518,507.534515 
	C117.659431,508.976044 117.006439,511.161133 116.000000,513.000000 
	C109.978844,513.000000 103.957695,513.000000 97.468262,513.000000 
z"/>
<path fill="#C507AD" opacity="1.000000" stroke="none" 
	d="
M68.531342,1.000000 
	C64.654915,6.341148 60.581341,11.935061 55.900124,16.963274 
	C49.142010,24.222334 41.925545,31.053600 34.936623,38.099117 
	C25.390066,47.722977 15.908234,57.411476 6.301812,66.974991 
	C5.052317,68.218903 3.227331,68.884743 1.334455,69.909172 
	C1.000000,47.073681 1.000000,24.147364 1.000000,1.000000 
	C23.353743,1.000000 45.708214,1.000000 68.531342,1.000000 
z"/>
<path fill="#A81AAE" opacity="1.000000" stroke="none" 
	d="
M208.531586,1.000000 
	C206.576324,4.252930 204.479248,7.824576 201.671097,10.702324 
	C190.870941,21.770067 179.778900,32.552345 168.922531,43.566086 
	C161.589783,51.005146 154.560837,58.743607 147.231155,66.185768 
	C137.901581,75.658524 128.254166,84.821251 119.023170,94.387230 
	C109.569450,104.184029 100.453232,114.306503 90.633423,124.697754 
	C83.718826,125.051842 77.360085,124.994598 71.001350,124.937347 
	C76.656700,118.469513 82.037086,111.733833 88.023422,105.588417 
	C101.356346,91.901154 115.053925,78.569962 128.483459,64.975670 
	C137.823196,55.521343 146.896393,45.804016 156.212906,36.326309 
	C165.887421,26.484390 175.750275,16.827623 185.428391,6.989171 
	C186.881271,5.512209 187.775711,3.485906 188.964233,1.356863 
	C195.354401,1.000000 201.708786,1.000000 208.531586,1.000000 
z"/>
<path fill="#6446B1" opacity="1.000000" stroke="none" 
	d="
M198.001831,368.898254 
	C195.082245,372.684448 192.506561,376.807770 189.183167,380.198120 
	C175.230621,394.431610 161.000687,408.392670 146.971329,422.551544 
	C119.122444,450.657562 91.325249,478.814880 63.567162,507.010529 
	C62.114548,508.486084 61.224129,510.515045 60.035988,512.643188 
	C54.645069,513.000000 49.290142,513.000000 43.467613,513.000000 
	C48.014782,507.321594 52.784119,501.401917 58.087246,496.006927 
	C79.800034,473.918243 101.711311,452.024872 123.480553,429.991425 
	C142.201996,411.042725 160.824066,391.995850 179.506042,373.008087 
	C181.816788,370.659546 184.225723,368.407562 187.226379,366.264160 
	C191.243011,367.244385 194.622421,368.071320 198.001831,368.898254 
z"/>
<path fill="#3764B4" opacity="1.000000" stroke="none" 
	d="
M513.000000,265.000000 
	C513.000000,274.354218 513.000000,283.708466 512.655579,293.611847 
	C509.737854,296.407104 507.007996,298.498749 504.616364,300.924011 
	C487.321655,318.462036 470.085388,336.057739 452.853241,353.657349 
	C447.519073,359.105255 442.255005,364.621796 436.670288,369.907471 
	C433.223083,363.147095 430.064362,356.586151 427.192078,349.844604 
	C431.945984,345.256378 436.472290,340.906464 440.869629,336.429871 
	C452.349060,324.743469 463.756622,312.986450 475.222046,301.286194 
	C486.237915,290.044800 497.257874,278.806915 508.373260,267.664459 
	C509.586578,266.448181 511.442261,265.872681 513.000000,265.000000 
z"/>
<path fill="#2570B4" opacity="1.000000" stroke="none" 
	d="
M513.000000,381.532074 
	C510.927673,383.239227 508.486877,384.113403 506.840790,385.774902 
	C492.604858,400.144073 478.508789,414.651794 464.377411,429.124481 
	C452.006622,441.794098 439.703613,454.530579 427.261749,467.129944 
	C413.966522,480.593475 400.527649,493.915070 387.199036,507.345795 
	C385.701965,508.854279 384.513733,510.669159 383.091125,512.671021 
	C377.977905,513.000000 372.955811,513.000000 367.466858,513.000000 
	C370.292999,508.873840 373.279205,504.451019 376.932434,500.673187 
	C392.197906,484.887299 407.617920,469.249756 423.068451,453.644135 
	C440.032593,436.509705 457.144928,419.521851 474.092102,402.370789 
	C485.260681,391.067871 496.230072,379.568359 507.347626,368.214630 
	C508.834320,366.696320 510.668396,365.518127 512.670776,364.091187 
	C513.000000,369.688049 513.000000,375.376068 513.000000,381.532074 
z"/>
<path fill="#3D61B3" opacity="1.000000" stroke="none" 
	d="
M513.000000,264.531342 
	C511.442261,265.872681 509.586578,266.448181 508.373260,267.664459 
	C497.257874,278.806915 486.237915,290.044800 475.222046,301.286194 
	C463.756622,312.986450 452.349060,324.743469 440.869629,336.429871 
	C436.472290,340.906464 431.945984,345.256378 426.932922,349.620972 
	C423.927460,344.958344 421.467529,340.338806 419.007629,335.719238 
	C420.339600,333.312378 421.217651,330.459381 423.075409,328.569305 
	C437.844116,313.543701 452.863678,298.765045 467.677368,283.783142 
	C480.977417,270.332062 494.095795,256.701508 507.347656,243.202469 
	C508.834595,241.687836 510.668854,240.514114 512.671021,239.091141 
	C513.000000,247.354233 513.000000,255.708450 513.000000,264.531342 
z"/>
<path fill="#A81AAE" opacity="1.000000" stroke="none" 
	d="
M79.364120,150.880875 
	C75.919991,153.416702 72.053162,155.539124 69.101753,158.556854 
	C52.517597,175.513641 36.227135,192.757401 19.675127,209.746063 
	C13.906115,215.667267 7.677012,221.140182 1.329017,226.908905 
	C1.000000,216.979111 1.000000,206.958206 1.000000,196.468658 
	C5.794364,191.958664 10.823633,188.160980 15.327821,183.818649 
	C22.020361,177.366638 28.314009,170.502411 34.827618,163.862869 
	C42.857498,155.677704 50.994205,147.596634 58.970215,139.359665 
	C62.071568,136.156845 64.860550,132.651535 68.262886,129.188492 
	C72.277344,136.355591 75.820732,143.618240 79.364120,150.880875 
z"/>
<path fill="#9626AF" opacity="1.000000" stroke="none" 
	d="
M1.000001,287.468536 
	C5.900462,282.903564 11.089257,279.101410 15.637579,274.645538 
	C23.564215,266.879974 31.055313,258.671722 38.804157,250.722336 
	C47.937622,241.352493 57.121078,232.030853 66.337578,222.742615 
	C77.048553,211.948288 87.818871,201.212845 99.040649,190.446289 
	C101.888901,195.295166 104.259941,200.149597 106.630989,205.004028 
	C99.447556,211.848602 92.253181,218.681763 85.086426,225.543762 
	C82.455849,228.062485 79.838913,230.599380 77.305107,233.214539 
	C68.403366,242.402069 59.635399,251.721100 50.641113,260.816620 
	C36.292686,275.326569 21.831970,289.726044 7.333271,304.085938 
	C5.747270,305.656769 3.600461,306.661316 1.356880,307.964264 
	C1.000000,301.312347 1.000000,294.624725 1.000001,287.468536 
z"/>
<path fill="#5952B3" opacity="1.000000" stroke="none" 
	d="
M116.444160,513.000000 
	C117.006439,511.161133 117.659431,508.976044 119.071518,507.534515 
	C147.223511,478.795563 175.458969,450.138397 203.686737,421.473755 
	C219.079620,405.842529 234.513031,390.251068 249.850220,374.565460 
	C251.176666,373.208862 251.917755,371.279907 253.225006,369.035858 
	C256.765564,362.308289 260.011871,356.161713 263.598328,349.973206 
	C265.439667,348.968567 267.167084,348.234497 268.406677,347.007568 
	C280.057037,335.476044 291.660645,323.896393 303.172394,312.226715 
	C304.752380,310.625061 305.755768,308.454651 307.480835,306.447754 
	C312.624603,306.405487 317.313690,306.463043 322.002747,306.520599 
	C320.932220,308.691010 320.305725,311.280823 318.717560,312.962311 
	C309.826996,322.375244 300.775909,331.640137 291.645508,340.822174 
	C273.515991,359.054169 255.234619,377.135345 237.134827,395.396637 
	C215.385468,417.340057 193.756927,439.403290 172.081833,461.420349 
	C158.917068,474.792755 145.697678,488.112488 132.651718,501.599884 
	C129.490112,504.868439 126.916573,508.705780 124.036316,512.640747 
	C121.629440,513.000000 119.258888,513.000000 116.444160,513.000000 
z"/>
<path fill="#1B76B5" opacity="1.000000" stroke="none" 
	d="
M414.468262,513.000000 
	C418.678986,507.505402 423.181641,501.846863 428.090973,496.566406 
	C432.250885,492.092010 436.986053,488.158386 441.282135,483.803406 
	C451.400513,473.546234 461.394226,463.166229 471.465179,452.862091 
	C483.765533,440.276978 496.079742,427.705261 508.432007,415.171143 
	C509.572144,414.014221 511.030609,413.170959 512.670654,412.091064 
	C513.000000,418.354401 513.000000,424.708801 512.659668,431.613220 
	C506.923553,437.230469 501.404572,442.173676 496.154572,447.387695 
	C479.048187,464.376831 461.956055,481.382355 445.051514,498.571411 
	C440.671997,503.024597 436.998047,508.171661 433.000000,513.000000 
	C426.978851,513.000000 420.957703,513.000000 414.468262,513.000000 
z"/>
<path fill="#127CB5" opacity="1.000000" stroke="none" 
	d="
M513.000000,456.000000 
	C513.000000,474.926147 513.000000,493.852295 513.000000,513.000000 
	C494.646362,513.000000 476.291840,513.000000 457.517975,512.652527 
	C459.203094,509.566223 461.070129,506.598663 463.451660,504.126740 
	C476.483704,490.599762 489.560852,477.113525 502.819000,463.809113 
	C505.811462,460.806244 509.585663,458.582428 513.000000,456.000000 
z"/>
<path fill="#1779B5" opacity="1.000000" stroke="none" 
	d="
M513.000000,455.531372 
	C509.585663,458.582428 505.811462,460.806244 502.819000,463.809113 
	C489.560852,477.113525 476.483704,490.599762 463.451660,504.126740 
	C461.070129,506.598663 459.203094,509.566223 457.049316,512.652527 
	C449.312408,513.000000 441.624847,513.000000 433.468628,513.000000 
	C436.998047,508.171661 440.671997,503.024597 445.051514,498.571411 
	C461.956055,481.382355 479.048187,464.376831 496.154572,447.387695 
	C501.404572,442.173676 506.923553,437.230469 512.659668,432.081635 
	C513.000000,439.687592 513.000000,447.375153 513.000000,455.531372 
z"/>
<path fill="#3267B4" opacity="1.000000" stroke="none" 
	d="
M436.958862,370.106934 
	C442.255005,364.621796 447.519073,359.105255 452.853241,353.657349 
	C470.085388,336.057739 487.321655,318.462036 504.616364,300.924011 
	C507.007996,298.498749 509.737854,296.407104 512.655579,294.080505 
	C513.000000,301.020966 513.000000,308.041901 513.000000,315.531433 
	C507.468933,320.700623 501.660919,325.116913 496.472717,330.169586 
	C488.982300,337.464264 481.975189,345.253235 474.700439,352.771881 
	C464.671295,363.137268 454.584961,373.447327 443.921631,383.708435 
	C441.199707,379.126160 439.079285,374.616547 436.958862,370.106934 
z"/>
<path fill="#FEFEFE" opacity="1.000000" stroke="none" 
	d="
M263.258179,350.015137 
	C260.011871,356.161713 256.765564,362.308289 253.258606,368.672058 
	C247.635986,368.817749 242.274002,368.746307 236.455811,368.786621 
	C229.637711,368.825226 223.275833,368.752106 216.456787,368.789978 
	C210.304733,368.826294 204.609833,368.751617 198.458389,368.787598 
	C194.622421,368.071320 191.243011,367.244385 187.567810,366.164154 
	C184.741486,360.658539 182.210953,355.406250 179.424149,349.892822 
	C175.880341,342.941254 172.592804,336.250793 169.085785,329.281555 
	C165.995972,323.196472 163.125656,317.390198 160.052505,311.292664 
	C155.104202,301.424286 150.358719,291.847137 145.348404,282.037628 
	C141.339005,274.154755 137.594467,266.504242 133.610886,258.580414 
	C128.892426,249.310333 124.413017,240.313568 119.714600,231.068298 
	C115.341049,222.419785 111.186508,214.019760 106.831474,205.311890 
	C104.259941,200.149597 101.888901,195.295166 99.266769,190.198151 
	C95.930458,183.661972 92.845222,177.368347 89.471268,170.847260 
	C86.070511,164.198334 82.958473,157.776886 79.605286,151.118164 
	C75.820732,143.618240 72.277344,136.355591 68.444214,128.879578 
	C67.896446,127.613464 67.638405,126.560722 67.337158,125.331711 
	C68.464447,125.247360 69.389847,125.178116 70.658302,125.023109 
	C77.360085,124.994598 83.718826,125.051842 90.539139,125.022835 
	C99.358849,124.993477 107.716972,125.050377 116.536736,125.021484 
	C121.157265,125.008415 125.323204,125.258156 129.472626,125.093002 
	C132.345032,124.978676 134.339676,125.683113 135.374741,128.878571 
	C138.125015,134.313934 140.625931,139.497467 143.386322,144.902634 
	C146.455353,150.981888 149.264908,156.839523 152.326019,162.927475 
	C156.241241,170.594360 159.904922,178.030914 163.800110,185.733459 
	C168.497314,195.186554 172.963028,204.373657 177.724106,214.150070 
	C182.317917,223.169662 186.616348,231.599960 190.959320,240.390015 
	C194.963989,248.515823 198.924133,256.281860 202.920334,264.409821 
	C206.374115,271.512695 209.791855,278.253632 213.256256,285.337952 
	C216.630127,292.356384 219.957352,299.031494 223.552124,306.243347 
	C224.582474,304.536438 225.380081,303.310608 226.084595,302.033386 
	C234.913086,286.027924 243.901596,270.106567 252.430740,253.942886 
	C254.705887,249.631226 257.295624,248.240143 262.078308,248.343079 
	C274.709778,248.614929 287.354828,248.257202 299.994446,248.150116 
	C315.025452,248.228302 330.056488,248.306503 345.543304,248.266113 
	C355.028625,248.225479 364.058105,248.303436 373.543396,248.262741 
	C375.986145,251.011154 378.042999,253.833176 379.931091,256.763916 
	C380.900269,258.268311 381.568085,259.966827 382.627502,261.804932 
	C385.403961,267.215515 387.924988,272.398773 390.724792,277.790619 
	C394.080292,284.339996 397.156952,290.680786 400.479675,297.283386 
	C401.812012,300.247681 402.898315,302.950195 404.272766,306.369507 
	C398.471130,306.369507 393.198669,306.369507 387.016296,306.368896 
	C377.077332,306.446503 368.048309,306.524658 358.562622,306.485474 
	C351.733215,306.443970 345.360413,306.519806 338.987610,306.595642 
	C333.633148,306.514099 328.278656,306.432556 322.463470,306.435822 
	C317.313690,306.463043 312.624603,306.405487 307.021790,306.338501 
	C300.121216,306.306915 294.121429,306.059570 288.155823,306.404114 
	C286.437347,306.503418 284.030151,307.907257 283.275055,309.392365 
	C276.433960,322.847473 269.889496,336.453369 263.258179,350.015137 
z"/>
<path fill="#FEFEFE" opacity="1.000000" stroke="none" 
	d="
M350.603943,198.061707 
	C352.467041,201.691788 354.072662,205.074387 355.909088,208.726898 
	C357.674683,212.277832 359.209473,215.558807 361.196594,219.806839 
	C349.013275,219.806839 337.466461,219.806839 324.999390,219.804718 
	C308.385254,219.867554 292.691406,219.932510 276.537628,219.901688 
	C265.717865,219.869858 255.358017,219.933807 244.631348,219.901489 
	C242.665726,218.700760 240.480087,217.946106 239.575104,216.428024 
	C236.526749,211.314453 233.933823,205.929382 231.134186,200.301559 
	C226.804413,191.608963 222.507126,183.263000 218.209854,174.917023 
	C217.122330,172.426376 216.034805,169.935730 214.623947,166.704559 
	C219.287277,166.704559 223.188293,166.704559 227.544540,166.611206 
	C240.359436,166.579819 252.719101,166.641800 265.539001,166.609955 
	C274.359924,166.578934 282.720612,166.641693 291.541687,166.609818 
	C300.406311,166.578049 308.810608,166.640900 317.613708,166.608932 
	C323.625275,166.796646 329.238037,167.079163 335.168762,167.668091 
	C338.104187,173.258682 340.721680,178.542862 343.597137,184.074554 
	C346.018860,188.819458 348.182648,193.316833 350.603943,198.061707 
z"/>
<path fill="#8134B0" opacity="1.000000" stroke="none" 
	d="
M217.913544,175.099121 
	C222.507126,183.263000 226.804413,191.608963 230.947891,200.607941 
	C218.837036,213.569305 206.905838,225.903076 194.873886,238.137772 
	C193.909683,239.118210 192.250839,239.415497 190.914795,240.030243 
	C186.616348,231.599960 182.317917,223.169662 177.986664,214.377777 
	C180.254639,211.954117 182.674179,210.008759 184.835449,207.809570 
	C193.661148,198.829056 202.374023,189.737595 211.209961,180.767258 
	C213.175964,178.771362 215.472733,177.101318 217.913544,175.099121 
z"/>
<path fill="#FEFEFE" opacity="1.000000" stroke="none" 
	d="
M436.670319,369.907501 
	C439.079285,374.616547 441.199707,379.126160 443.604187,383.833252 
	C444.316589,385.424713 444.744904,386.818756 445.381592,388.890869 
	C442.290955,388.890869 439.575012,388.890869 436.429718,388.977356 
	C427.641632,389.005676 419.282837,388.947540 410.462433,388.975983 
	C397.975616,389.005554 385.950409,388.948547 373.463623,388.977661 
	C362.309082,389.006256 351.616119,388.948792 340.461273,388.977295 
	C339.836304,389.032074 339.660156,388.943756 339.511963,388.977631 
	C325.899109,392.091736 321.505676,382.953003 317.685486,372.437469 
	C315.200592,367.803375 312.949341,363.471802 310.382568,358.989319 
	C307.912354,354.037140 305.757690,349.235901 303.320984,344.212128 
	C302.002625,341.447510 300.966248,338.905426 299.633392,335.636078 
	C304.552002,335.636078 308.817780,335.636078 313.991455,335.634552 
	C321.938721,335.555023 328.978180,335.476990 336.471741,335.515533 
	C345.956268,335.555115 354.986694,335.478119 364.017090,335.401123 
	C371.704559,335.485931 379.391998,335.570770 387.540649,335.566895 
	C398.024353,335.555115 408.046875,335.631958 418.538513,335.714050 
	C421.467529,340.338806 423.927460,344.958344 426.646515,349.801544 
	C430.064362,356.586151 433.223083,363.147095 436.670319,369.907501 
z"/>
<path fill="#6D42B2" opacity="1.000000" stroke="none" 
	d="
M276.997559,219.997467 
	C292.691406,219.932510 308.385254,219.867554 324.538940,219.899490 
	C323.537628,221.959061 322.242157,224.075714 320.586365,225.857452 
	C313.839539,233.117371 306.982452,240.274734 300.080200,247.809998 
	C287.354828,248.257202 274.709778,248.614929 262.078308,248.343079 
	C257.295624,248.240143 254.705887,249.631226 252.430740,253.942886 
	C243.901596,270.106567 234.913086,286.027924 226.084595,302.033386 
	C225.380081,303.310608 224.582474,304.536438 223.552124,306.243347 
	C219.957352,299.031494 216.630127,292.356384 213.571503,285.237061 
	C216.578979,282.665558 219.588547,280.806458 222.008743,278.363464 
	C231.323761,268.960724 240.445419,259.366547 249.650192,249.854416 
	C251.946487,247.481430 254.372116,245.228119 256.586304,242.782196 
	C263.429474,235.222961 270.199280,227.597321 276.997559,219.997467 
z"/>
<path fill="#4C57B3" opacity="1.000000" stroke="none" 
	d="
M364.060303,335.074799 
	C354.986694,335.478119 345.956268,335.555115 336.485809,335.178284 
	C337.089111,332.925110 337.832245,330.838867 339.228851,329.377045 
	C344.691986,323.658936 350.464478,318.235046 355.886780,312.480164 
	C357.355652,310.921204 357.997681,308.583252 359.019257,306.602844 
	C368.048309,306.524658 377.077332,306.446503 386.563171,306.486389 
	C386.004425,308.577911 385.365662,310.904938 383.905396,312.461029 
	C378.730438,317.975372 373.180969,323.137512 367.981049,328.629730 
	C366.351837,330.350525 365.377533,332.691406 364.060303,335.074799 
z"/>
<path fill="#5153B2" opacity="1.000000" stroke="none" 
	d="
M358.562622,306.485474 
	C357.997681,308.583252 357.355652,310.921204 355.886780,312.480164 
	C350.464478,318.235046 344.691986,323.658936 339.228851,329.377045 
	C337.832245,330.838867 337.089111,332.925110 336.031677,335.061707 
	C328.978180,335.476990 321.938721,335.555023 314.442261,335.517670 
	C315.112030,333.646454 315.987671,331.647736 317.409454,330.177063 
	C323.358978,324.022980 329.513428,318.067413 335.493988,311.942657 
	C336.832306,310.572083 337.771454,308.811798 338.940979,306.913269 
	C345.360413,306.519806 351.733215,306.443970 358.562622,306.485474 
z"/>
<path fill="#6156B6" opacity="1.000000" stroke="none" 
	d="
M263.598358,349.973206 
	C269.889496,336.453369 276.433960,322.847473 283.275055,309.392365 
	C284.030151,307.907257 286.437347,306.503418 288.155823,306.404114 
	C294.121429,306.059570 300.121216,306.306915 306.567047,306.438324 
	C305.755768,308.454651 304.752380,310.625061 303.172394,312.226715 
	C291.660645,323.896393 280.057037,335.476044 268.406677,347.007568 
	C267.167084,348.234497 265.439667,348.968567 263.598358,349.973206 
z"/>
<path fill="#743CB1" opacity="1.000000" stroke="none" 
	d="
M276.537628,219.901688 
	C270.199280,227.597321 263.429474,235.222961 256.586304,242.782196 
	C254.372116,245.228119 251.946487,247.481430 249.650192,249.854416 
	C240.445419,259.366547 231.323761,268.960724 222.008743,278.363464 
	C219.588547,280.806458 216.578979,282.665558 213.524857,284.893738 
	C209.791855,278.253632 206.374115,271.512695 203.207199,264.227386 
	C216.650864,250.598877 229.872650,237.543518 242.982391,224.376587 
	C244.046692,223.307663 244.344299,221.475342 244.998169,219.997757 
	C255.358017,219.933807 265.717865,219.869858 276.537628,219.901688 
z"/>
<path fill="#7A39B1" opacity="1.000000" stroke="none" 
	d="
M244.631363,219.901489 
	C244.344299,221.475342 244.046692,223.307663 242.982391,224.376587 
	C229.872650,237.543518 216.650864,250.598877 203.171158,263.865479 
	C198.924133,256.281860 194.963989,248.515823 190.959320,240.390015 
	C192.250839,239.415497 193.909683,239.118210 194.873886,238.137772 
	C206.905838,225.903076 218.837036,213.569305 230.980392,200.954559 
	C233.933823,205.929382 236.526749,211.314453 239.575104,216.428024 
	C240.480087,217.946106 242.665726,218.700760 244.631363,219.901489 
z"/>
</svg>